<svg xmlns="http://www.w3.org/2000/svg" xmlns:xlink="http://www.w3.org/1999/xlink" viewBox="0 0 30 31">
<ns0:g xmlns:ns0="http://www.w3.org/2000/svg" fill="none" fill-rule="evenodd"><ns0:path d="M14.999.558c4.82.014 8.455 1.202 10.877 3.619 2.421 2.417 3.61 6.045 3.624 10.854.007 4.968-1.55 8.292-3.738 10.485-3.306 3.312-8.01 4.042-10.762 4.042-2.741 0-7.41-.88-10.713-4.188C2.08 23.158.5 19.86.5 15.03V.558Z" stroke="currentColor" fill="#FFF" /><ns0:path d="M7.303 19.866V15.61h1.489c1.033 0 1.822-.054 2.367-.162a3.312 3.312 0 0 0 1.184-.535c.388-.269.708-.64.96-1.112.252-.472.378-1.054.378-1.746 0-.898-.218-1.63-.655-2.198-.437-.566-.98-.935-1.628-1.104-.421-.113-1.326-.17-2.714-.17H5.02v11.283h2.282Zm1.25-6.172h-1.25v-3.202l1.342.001c.69.005 1.159.03 1.404.076.37.067.676.234.918.5.241.267.362.606.362 1.016 0 .334-.086.626-.258.878-.173.251-.41.436-.714.554-.303.118-.905.177-1.804.177Zm11.715 6.364c.93 0 1.85-.176 2.757-.527.907-.352 1.6-.758 2.078-1.22v-4.494h-4.92v1.9h2.614v1.432a4.932 4.932 0 0 1-1.237.681c-.481.187-.96.281-1.439.281-.966 0-1.748-.335-2.344-1.004-.597-.67-.895-1.674-.895-3.013 0-1.242.295-2.178.883-2.809.589-.631 1.382-.947 2.38-.947.658 0 1.206.16 1.646.481.44.321.739.758.898 1.313l2.268-.424c-.226-1.036-.734-1.848-1.523-2.435-.79-.588-1.886-.882-3.29-.882-1.08 0-1.982.188-2.706.562a4.981 4.981 0 0 0-2.168 2.101c-.493.913-.74 1.957-.74 3.132 0 1.083.221 2.085.663 3.005a4.726 4.726 0 0 0 1.982 2.124c.88.496 1.91.743 3.093.743Z" fill="#FB791B" fill-rule="nonzero" /></ns0:g>
</svg>
